<?xml version="1.0" standalone="no"?>
<!DOCTYPE svg PUBLIC "-//W3C//DTD SVG 20010904//EN"
 "http://www.w3.org/TR/2001/REC-SVG-20010904/DTD/svg10.dtd">
<svg version="1.0" xmlns="http://www.w3.org/2000/svg"
 width="512.000000pt" height="512.000000pt" viewBox="0 0 512.000000 512.000000"
 preserveAspectRatio="xMidYMid meet">
<metadata>
Created by potrace 1.14, written by Peter Selinger 2001-2017
</metadata>
<g transform="translate(0.000000,512.000000) scale(0.100000,-0.100000)"
fill="#000000" stroke="none">
<path d="M925 4541 c-16 -4 -41 -14 -55 -21 -14 -8 -28 -13 -32 -12 -5 1 -8
-2 -8 -8 0 -5 -6 -10 -14 -10 -15 0 -127 -107 -124 -118 3 -12 -35 -82 -44
-82 -5 0 -6 -11 -4 -25 3 -14 0 -25 -5 -25 -12 0 -12 -1557 0 -1565 6 -3 8
-14 6 -25 -2 -11 0 -20 5 -20 5 0 12 -16 16 -35 3 -19 10 -35 15 -35 5 0 9 -4
9 -10 0 -5 8 -20 17 -32 36 -46 1858 -1866 1864 -1862 4 2 9 -3 13 -11 3 -8
12 -15 21 -15 8 0 15 -4 15 -9 0 -23 88 -45 191 -47 112 -3 167 9 220 47 15
10 29 19 32 19 7 0 1487 1480 1487 1487 0 2 9 17 20 33 11 15 17 30 13 34 -3
3 0 6 7 6 7 0 10 3 7 7 -4 3 -1 13 6 21 8 10 12 53 12 131 0 96 -3 122 -18
144 -10 15 -16 31 -13 36 3 4 -8 22 -24 40 -16 17 -29 34 -28 38 2 14 -1831
1838 -1884 1874 -31 21 -64 39 -72 39 -9 0 -16 4 -16 9 0 12 -1590 13 -1635 2z
m745 -616 c59 -30 100 -63 100 -81 0 -7 6 -14 14 -17 7 -3 19 -26 27 -51 7
-25 16 -46 19 -46 10 0 4 -134 -8 -176 -12 -40 -77 -134 -93 -134 -4 0 -20
-11 -35 -25 -14 -13 -30 -22 -35 -19 -5 3 -9 1 -9 -5 0 -5 -9 -8 -20 -6 -11 2
-22 0 -25 -6 -8 -12 -142 -12 -150 1 -4 6 -10 8 -15 5 -11 -7 -80 34 -80 47 0
5 -5 6 -11 3 -14 -9 -54 36 -86 98 -22 43 -27 67 -29 139 -1 49 2 90 6 93 5 3
7 12 3 20 -3 8 0 15 6 15 6 0 11 7 11 15 0 8 5 15 10 15 6 0 10 6 10 13 0 10
44 55 92 93 23 18 52 26 113 33 96 10 127 6 185 -24z"/>
</g>
</svg>
